<svg xmlns="http://www.w3.org/2000/svg" width="26" height="28" viewBox="0 0 26 28"><path fill="#9F9F9F" d="M26 17.147c-.51-4.701-1.529-10.297-2.221-12.849-.994-3.662-3.68-4.634-7.563-4.206-4.178.462-5.465 3.308-16.216 3.308v12.28c3.627.275 9.802.661 12.185 8.437.591 1.932 1.156 3.883 3.374 3.883 4.107 0 3.58-6.453 2.615-10.283 2.534-1.045 5.835-1.057 7.826-.57zm-10.379-.504c1.359 3.976 1.715 8.781.219 9.225-1.196.354-1.33-1.532-1.779-2.902-1.201-3.66-4.42-8.641-11.924-9.162v-8.432c7.897-.087 11.555-2.887 14.318-3.203 2.438-.277 5.041.041 5.387 2.425l-1.117-.367c-.949-.282-1.372 1.119-.432 1.397l1.057.353c1.025.304 1.066.703 1.254 2.088l-1.325-.425c-.939-.279-1.385 1.116-.433 1.398l1.079.324c1.059.314 1.078.58 1.316 2.114l-1.404-.406c-.95-.282-1.373 1.119-.433 1.398l1.358.354c.91.253.968.828 1.051 2.029-3.635-.444-6.831.827-8.192 1.792z"/></svg>