<svg xmlns="http://www.w3.org/2000/svg" width="32" height="30" viewBox="0 0 32 30"><path fill-rule="evenodd" clip-rule="evenodd" fill="#DD2B00" d="M29 0h-26c-1.657 0-3 1.343-3 3v20c0 1.657 1.343 3 3 3h8.988l4.012 4.013 4.012-4.013h8.988c1.656 0 3-1.343 3-3v-20c0-1.657-1.344-3-3-3zm1 22c0 1.104-.896 2-2 2h-8.988l-3.012 3.013-3.012-3.013h-8.988c-1.104 0-2-.896-2-2v-18c0-1.104.896-2 2-2h24c1.104 0 2 .896 2 2v18zm-13-4v-5c0-.553-.447-1-1-1h-1c-.552 0-1 .447-1 1s.448 1 1 1v4c-.552 0-1 .447-1 1s.448 1 1 1h2c.553 0 1-.447 1-1s-.447-1-1-1zm-1-12c-1.104 0-2 .896-2 2s.896 2 2 2 2-.896 2-2-.896-2-2-2z"/></svg>