<svg xmlns="http://www.w3.org/2000/svg" width="26" height="28" viewBox="0 0 26 28"><path fill="#9F9F9F" d="M18.174 10.284c.965-3.831 1.492-10.284-2.615-10.284-2.218 0-2.782 1.951-3.374 3.884-2.383 7.776-8.558 8.161-12.185 8.436v12.28c10.751 0 12.038 2.847 16.217 3.308 3.883.429 6.568-.543 7.563-4.206.691-2.552 1.71-8.147 2.22-12.849-1.991.488-5.292.476-7.826-.569zm4.59 4.894l-1.358.354c-.94.278-.518 1.68.433 1.397l1.404-.405c-.238 1.533-.258 1.799-1.316 2.113l-1.079.325c-.952.281-.507 1.677.433 1.397l1.324-.425c-.188 1.385-.229 1.784-1.254 2.088l-1.057.353c-.94.278-.518 1.68.432 1.397l1.117-.367c-.346 2.385-2.949 2.702-5.387 2.425-2.764-.315-6.421-3.116-14.318-3.202v-8.432c7.504-.521 10.723-5.502 11.924-9.162.449-1.37.583-3.256 1.779-2.901 1.496.442 1.141 5.248-.219 9.224 1.361.965 4.557 2.235 8.193 1.791-.084 1.202-.141 1.778-1.051 2.03z"/></svg>