<svg xmlns="http://www.w3.org/2000/svg" width="34" height="38" viewBox="0 0 34 38"><path fill="#DD2B00" d="M23.767 13.602c1.259-5.067 1.95-13.602-3.421-13.602-2.9 0-3.638 2.58-4.412 5.137-3.116 10.285-11.191 10.794-15.934 11.159v16.239c14.059 0 15.742 3.766 21.207 4.376 5.076.565 8.59-.719 9.889-5.563.904-3.375 2.238-10.776 2.904-16.994-2.604.645-6.92.629-10.233-.752zm6.002 6.473l-1.776.468c-1.231.369-.678 2.222.564 1.849l1.838-.536c-.313 2.028-.338 2.379-1.723 2.795l-1.41.43c-1.245.373-.664 2.219.564 1.849l1.732-.562c-.246 1.832-.299 2.359-1.64 2.761l-1.382.467c-1.23.368-.676 2.222.564 1.849l1.461-.485c-.452 3.153-3.856 3.573-7.043 3.206-3.616-.417-8.398-4.12-18.725-4.235v-11.154c9.813-.689 14.022-7.276 15.592-12.117.588-1.813.763-4.308 2.328-3.839 1.956.586 1.491 6.942-.287 12.2 1.78 1.276 5.959 2.956 10.715 2.369-.108 1.589-.182 2.35-1.372 2.685z"/></svg>