<svg xmlns="http://www.w3.org/2000/svg" width="32" height="30" viewBox="0 0 32 30"><path fill="#999" d="M21 14h-10c-.552 0-1 .448-1 1 0 .553.448 1 1 1h10c.553 0 1-.447 1-1 0-.552-.447-1-1-1zm4-6h-18c-.552 0-1 .448-1 1 0 .553.448 1 1 1h18c.553 0 1-.447 1-1 0-.552-.447-1-1-1zm4-8h-26c-1.657 0-3 1.344-3 3v20c0 1.657 1.343 3 3 3h8.987l4.013 4.013 4.012-4.013h8.988c1.656 0 3-1.343 3-3v-20c0-1.656-1.344-3-3-3zm1 22c0 1.104-.896 2-2 2h-8.988l-3.012 3.013-3.012-3.013h-8.988c-1.104 0-2-.896-2-2v-18c0-1.104.896-2 2-2h24c1.104 0 2 .896 2 2v18z"/></svg>